Coordinates
version=1
nRows=29
nColumns=22
inDegrees=yes

Units are S.I. units (second, meters, Newtons, ...)
If the header above contains a line with 'inDegrees', this indicates whether rotational values are in degrees (yes) or radians (no).

endheader
time	pelvis_tilt	pelvis_list	pelvis_rotation	pelvis_tx	pelvis_ty	pelvis_tz	hip_flexion_r	hip_adduction_r	hip_rotation_r	knee_angle_r	ankle_angle_r	subtalar_angle_r	hip_flexion_l	hip_adduction_l	hip_rotation_l	knee_angle_l	ankle_angle_l	subtalar_angle_l	lumbar_extension	lumbar_bending	lumbar_rotation
      3.39000000	      1.95850520	      2.47985532	    -30.33413774	     -0.32718945	      0.88825933	     -0.08316421	    -12.40751385	     -2.87090620	     -2.52828302	    -24.34574728	     15.92689626	     -1.72860156	     21.30467211	      0.72970411	    -13.40210207	    -22.52116904	      4.28438621	     -1.60920505	     -6.98222844	     -5.77518204	      5.54820150
      3.40000000	      1.91281576	      2.51689911	    -30.37711347	     -0.32033127	      0.88922003	     -0.08184848	    -11.95027372	     -3.06211266	     -2.24721007	    -25.60159278	     14.68154982	     -1.37248671	     20.87199621	      0.95310275	    -13.33832264	    -22.45316082	      4.63641460	     -2.13080113	     -6.81612765	     -5.78228750	      5.67033572
      3.41000000	      1.87764654	      2.53310431	    -30.40165513	     -0.31352868	      0.89015816	     -0.08056270	    -11.45138343	     -3.23713496	     -1.98851771	    -26.94966211	     13.42650252	     -0.96757727	     20.39772400	      1.17523518	    -13.24802266	    -22.33282095	      5.00161512	     -2.67390793	     -6.67505630	     -5.77110519	      5.73243777
      3.42000000	      1.84828023	      2.53475450	    -30.46314617	     -0.30687007	      0.89104548	     -0.07923982	    -10.87435296	     -3.40356471	     -1.67197477	    -28.42639895	     12.19266819	     -0.61450585	     19.91622769	      1.36124210	    -13.23546028	    -22.21856517	      5.34311489	     -3.14259231	     -6.55234055	     -5.75260550	      5.82728807
      3.43000000	      1.84045297	      2.52796651	    -30.56050612	     -0.30035943	      0.89189457	     -0.07785120	    -10.23325317	     -3.56898269	     -1.29866019	    -30.03058647	     11.00715394	     -0.39798781	     19.41634962	      1.52237355	    -13.30074459	    -22.11231002	      5.65367190	     -3.46566573	     -6.45560372	     -5.74693811	      5.94071497
      3.44000000	      1.84113011	      2.51147558	    -30.64340743	     -0.29395784	      0.89268295	     -0.07649982	     -9.53374669	     -3.72333013	     -0.94918959	    -31.74181409	      9.84598209	     -0.13352327	     18.92425989	      1.67931973	    -13.33933775	    -22.02632254	      5.99045332	     -3.82915679	     -6.38087774	     -5.73229944	      6.01972731
      3.45000000	      1.84618435	      2.46844828	    -30.69684088	     -0.28767099	      0.89341983	     -0.07521028	     -8.78011958	     -3.84880748	     -0.65061340	    -33.55810729	      8.69821440	      0.23525068	     18.44195976	      1.81963504	    -13.32005758	    -21.97282032	      6.35504055	     -4.28584022	     -6.33794219	     -5.68969552	      6.08116944
      3.46000000	      1.89562064	      2.43657212	    -30.80458897	     -0.28156586	      0.89414583	     -0.07381520	     -7.97677706	     -3.99407972	     -0.27349155	    -35.48093168	      7.59779995	      0.29191444	     17.93310832	      1.95560581	    -13.41803307	    -21.93445382	      6.67777555	     -4.46191488	     -6.33205770	     -5.69632032	      6.15490241
      3.47000000	      1.92634027	      2.39612565	    -30.89660863	     -0.27562551	      0.89478834	     -0.07246867	     -7.08130861	     -4.10782335	      0.07527753	    -37.49840306	      6.50890487	      0.37367877	     17.47249100	      2.07243270	    -13.47544908	    -21.93932372	      7.02594810	     -4.69311854	     -6.32525587	     -5.68151702	      6.22058365
      3.48000000	      1.96208697	      2.34924661	    -30.98062318	     -0.26984712	      0.89539548	     -0.07114316	     -6.12525133	     -4.20596967	      0.39288993	    -39.58034649	      5.44488029	      0.42456666	     17.02475904	      2.18342179	    -13.51008571	    -21.96547396	      7.38204827	     -4.91779703	     -6.33797250	     -5.66557230	      6.27168882
      3.49000000	      2.00468358	      2.30268527	    -31.05958842	     -0.26423041	      0.89597357	     -0.06985254	     -5.11297779	     -4.29765293	      0.68036385	    -41.70258119	      4.43440317	      0.43514233	     16.58258047	      2.29793060	    -13.53148285	    -21.99242248	      7.74082040	     -5.11907274	     -6.37062969	     -5.65317514	      6.30386874
      3.50000000	      2.05468187	      2.25643397	    -31.13097121	     -0.25875449	      0.89653978	     -0.06860056	     -4.05675568	     -4.39096937	      0.91497256	    -43.82945701	      3.51946337	      0.41540098	     16.13535644	      2.42063782	    -13.53458105	    -22.00524312	      8.09861640	     -5.30149692	     -6.42083002	     -5.64278879	      6.31834434
      3.51000000	      2.10652704	      2.21501123	    -31.20013833	     -0.25341849	      0.89708328	     -0.06738799	     -2.95775158	     -4.49350642	      1.09175884	    -45.92831722	      2.76182882	      0.37655053	     15.68862279	      2.55194963	    -13.52503447	    -21.99941176	      8.44707979	     -5.48797458	     -6.47963125	     -5.63545203	      6.32197211
      3.52000000	      2.16495752	      2.17397141	    -31.25769423	     -0.24818327	      0.89762885	     -0.06624051	     -1.84256239	     -4.61303218	      1.19595621	    -47.95168454	      2.19599736	      0.29955434	     15.22697807	      2.69588047	    -13.49908368	    -21.96019609	      8.78918787	     -5.68153683	     -6.55415107	     -5.62368578	      6.30830692
      3.53000000	      2.23722159	      2.13348228	    -31.31256044	     -0.24303231	      0.89818842	     -0.06513396	     -0.73336737	     -4.75972573	      1.22974364	    -49.85588310	      1.87892082	      0.15386360	     14.73694748	      2.85378551	    -13.47372878	    -21.87923261	      9.11371360	     -5.86126012	     -6.64654877	     -5.61350001	      6.27910544
      3.54000000	      2.31175503	      2.09021720	    -31.35957520	     -0.23795517	      0.89875712	     -0.06408074	      0.36634989	     -4.92677919	      1.19624322	    -51.60565507	      1.83060659	     -0.10190288	     14.23122825	      3.01606474	    -13.44716859	    -21.76378784	      9.41865881	     -6.04768362	     -6.74701493	     -5.59391999	      6.23824445
      3.55000000	      2.36513118	      2.02427122	    -31.39543122	     -0.23295910	      0.89933963	     -0.06307401	      1.45391013	     -5.07245098	      1.11655799	    -53.16274176	      2.02465344	     -0.70334868	     13.72152635	      3.15405463	    -13.38613225	    -21.61497794	      9.71428935	     -6.33478803	     -6.84347790	     -5.53191927	      6.19093505
      3.56000000	      2.45137913	      1.94970595	    -31.42079379	     -0.22799040	      0.89997148	     -0.06210295	      2.47242987	     -5.26001873	      0.96111566	    -54.50938404	      2.48820369	     -1.40586195	     13.16074062	      3.30369606	    -13.35162215	    -21.43218283	      9.99299878	     -6.50945090	     -6.97760686	     -5.47401411	      6.12575365
      3.57000000	      2.54825000	      1.88338381	    -31.42730462	     -0.22306280	      0.90060967	     -0.06118206	      3.45639721	     -5.49230850	      0.73082933	    -55.65104243	      3.12680749	     -2.07333282	     12.59667891	      3.46388529	    -13.34984350	    -21.24434307	     10.20648419	     -6.62751912	     -7.11889200	     -5.42501179	      6.03479314
      3.58000000	      2.61427358	      1.73808089	    -31.41494968	     -0.21819550	      0.90131531	     -0.06025859	      4.36132187	     -5.61801325	      0.49468657	    -56.52344825	      3.91696916	     -3.20334670	     12.00254507	      3.54336531	    -13.26553000	    -21.02458304	     10.48354342	     -6.79132320	     -7.27573031	     -5.27511247	      5.95421184
      3.59000000	      2.68776972	      1.59094813	    -31.38494681	     -0.21336558	      0.90203002	     -0.05934265	      5.21845049	     -5.76636030	      0.19829390	    -57.18274512	      4.76637301	     -4.26380667	     11.40509086	      3.61915291	    -13.19896654	    -20.80976264	     10.71968513	     -6.89845773	     -7.43885109	     -5.12915112	      5.85597022
      3.60000000	      2.75492275	      1.42220255	    -31.33691465	     -0.20859693	      0.90274814	     -0.05843177	      6.02450638	     -5.89163691	     -0.12724071	    -57.62633513	      5.64973721	     -5.41751825	     10.81234273	      3.66717308	    -13.11662234	    -20.60953076	     10.95801901	     -6.99573783	     -7.61235083	     -4.95778909	      5.74678542
      3.61000000	      2.80886507	      1.24275803	    -31.27565620	     -0.20386611	      0.90345200	     -0.05748998	      6.78835909	     -6.00194139	     -0.48780859	    -57.85880408	      6.54264277	     -6.65649230	     10.22431293	      3.69372237	    -13.02369715	    -20.40365640	     11.19162979	     -7.08447813	     -7.77313979	     -4.77054530	      5.63866592
      3.62000000	      2.85256096	      1.06011720	    -31.19998205	     -0.19919730	      0.90412023	     -0.05651596	      7.51915372	     -6.10382911	     -0.88110492	    -57.90322447	      7.41533797	     -7.98740934	      9.65004802	      3.70472966	    -12.91674782	    -20.20263761	     11.42182980	     -7.16887770	     -7.92525106	     -4.57994976	      5.53193554
      3.63000000	      2.88291100	      0.87836510	    -31.12319982	     -0.19460777	      0.90473167	     -0.05549171	      8.22653932	     -6.19344857	     -1.28976208	    -57.77371626	      8.25834342	     -9.42912533	      9.09890676	      3.69926582	    -12.80837635	    -20.01534302	     11.65256666	     -7.24974374	     -8.06420527	     -4.38865915	      5.43602349
      3.64000000	      2.90195381	      0.70667288	    -31.04723264	     -0.19010460	      0.90527049	     -0.05440900	      8.91732288	     -6.27814064	     -1.70940270	    -57.48681551	      9.05008085	    -11.00713840	      8.57469199	      3.68471327	    -12.71198214	    -19.84173787	     11.88470371	     -7.32670916	     -8.18756462	     -4.20814587	      5.34427766
      3.65000000	      2.91440996	      0.54905274	    -30.96425287	     -0.18568443	      0.90573134	     -0.05329275	      9.59027861	     -6.36994005	     -2.15422304	    -57.05704259	      9.76668386	    -12.65112443	      8.07611351	      3.67390947	    -12.59018637	    -19.68085346	     12.12189782	     -7.39589792	     -8.30204127	     -4.04374333	      5.25890683
      3.66000000	      2.91556882	      0.40802115	    -30.90445684	     -0.18138165	      0.90610276	     -0.05210139	     10.26185302	     -6.44789671	     -2.56622964	    -56.49837665	     10.42353702	    -14.39480477	      7.61006094	      3.65466997	    -12.52231709	    -19.53688598	     12.36426091	     -7.45818917	     -8.40187627	     -3.89494994	      5.18656347
      3.67000000	      2.91760341	      0.28124513	    -30.84794730	     -0.17716424	      0.90640052	     -0.05087283	     10.91449159	     -6.53257654	     -2.99097750	    -55.81716968	     11.03154096	    -16.00875161	      7.16390474	      3.64242873	    -12.44955850	    -19.40905750	     12.61262262	     -7.50966075	     -8.50185063	     -3.76364866	      5.12255560
